<?xml version="1.0" encoding="UTF-8"?>
<svg width="160px" height="93px" viewBox="0 0 160 93" version="1.1" xmlns="http://www.w3.org/2000/svg" xmlns:xlink="http://www.w3.org/1999/xlink">
    <title>click on him</title>
    <g id="404" stroke="none" stroke-width="1" fill="none" fill-rule="evenodd">
        <g id="Page-3-Copy" transform="translate(-345.000000, -614.000000)">
            <g id="click-on-him" transform="translate(347.000000, 617.000000)">
                <path id="Path-11" d="M157.368291,-0.713551137 L157.355596,-0.58600704 L154.799888,17.5927815 C154.684555,18.4131412 153.926027,18.9846788 153.105667,18.8693466 C152.333564,18.7607986 151.781871,18.0824992 151.815791,17.3191357 L151.829102,17.1751265 L153.587,4.666 L147.431081,12.7307936 L147.367074,12.8090205 C129.231325,33.5093228 107.379993,43.8944683 86.4399942,37.447837 C85.2291712,37.0750705 82.4629945,35.4246085 79.3882785,33.2565338 L79.258,33.164 L79.1059946,33.4581556 C75.537909,40.223263 69.8709649,46.347707 62.7122851,51.4566669 L62.1984221,51.8198606 C40.8501564,66.7631493 12.444502,62.1989574 -1.26665039,40.5842162 C-1.71040587,39.8846645 -1.50304207,38.9578309 -0.803490378,38.5140754 C-0.103938684,38.0703199 0.822894908,38.2776837 1.26665039,38.9772354 C14.0326851,59.1020599 40.4901501,63.3532187 60.4780735,49.3621379 C67.6891728,44.3145363 73.3136179,38.2320168 76.7075699,31.5587127 L76.804,31.364 L76.7063271,31.2891497 C74.5693405,29.6593529 72.4543146,27.891213 70.7508223,26.2222213 L70.4853265,25.9595549 C67.0255735,22.5022972 64.8458177,19.2059595 64.3102422,16.1073904 C63.636863,12.2115591 65.6121116,8.95101007 70.2178736,6.71482241 C75.4039608,4.19687545 79.3941466,5.54565252 81.5381528,9.8033473 C83.086744,12.8786317 83.5656742,17.4129983 83.0534057,21.3031772 C82.6603228,24.2882573 81.8665414,27.2034663 80.7123218,30.0239485 L80.553,30.404 L81.1291448,30.8072043 L81.8100753,31.2736761 C84.3162107,32.9717688 86.8151607,34.4243858 87.3226964,34.5806368 C106.70707,40.5483501 127.255009,30.934464 144.586382,11.4262682 L145.077,10.869 L151.203,2.846 L139.600356,7.83893916 C138.884149,8.14711792 138.06044,7.85393133 137.693022,7.18394721 L137.629616,7.05396442 C137.321437,6.33775782 137.614624,5.51404834 138.284608,5.14663078 L138.414591,5.0832248 L155.277321,-2.17269172 C156.311975,-2.6178962 157.432146,-1.80843356 157.368291,-0.713551137 Z M71.5281603,9.41355334 C68.0551726,11.0997569 66.8367995,13.1109293 67.2664083,15.5964287 C67.6727815,17.9474983 69.5450646,20.7788602 72.6058814,23.8374694 C74.1336865,25.3641724 75.9114475,26.9023227 77.8273202,28.3886966 L78.06,28.567 L78.1849741,28.2546044 C79.047987,26.0231078 79.6634502,23.7366501 80.0091429,21.4105598 L80.0790826,20.9115108 C80.5191341,17.5697501 80.1021586,13.6219525 78.8586979,11.1526144 C77.452358,8.35982109 75.2392601,7.6117417 71.5281603,9.41355334 Z" fill="#3A3A3A" fill-rule="nonzero"></path>
                <text transform="translate(93.000000, 66.500000) rotate(-13.000000) translate(-93.000000, -66.500000) " font-family="Helvetica" font-size="16" font-weight="normal" fill="#C5422C">
                    <tspan x="51.2109375" y="71">click on him</tspan>
                </text>
            </g>
        </g>
    </g>
</svg>