<?xml version="1.0" encoding="UTF-8"?>
<svg width="294px" height="242px" viewBox="0 0 294 242" version="1.1" xmlns="http://www.w3.org/2000/svg" xmlns:xlink="http://www.w3.org/1999/xlink">
    <title>shiba-1</title>
    <defs>
        <filter x="-32.1%" y="-45.0%" width="164.3%" height="190.0%" filterUnits="objectBoundingBox" id="filter-1">
            <feGaussianBlur stdDeviation="3" in="SourceGraphic"></feGaussianBlur>
        </filter>
        <filter x="-32.1%" y="-45.0%" width="164.3%" height="190.0%" filterUnits="objectBoundingBox" id="filter-2">
            <feGaussianBlur stdDeviation="3" in="SourceGraphic"></feGaussianBlur>
        </filter>
    </defs>
    <g id="404" stroke="none" stroke-width="1" fill="none" fill-rule="evenodd">
        <g id="Page-1" transform="translate(-365.000000, -330.000000)">
            <g id="shiba-1" transform="translate(367.000000, 332.000000)">
                <path d="M108.197858,34.9807383 C86.6243926,8.91852018 70.559046,-2.51227724 60.0018183,0.688346037 C44.1659766,5.48928095 42.1004321,30.8656512 42.1004321,34.9807383 C42.1004321,39.0958254 37.969343,74.7599133 19.3794419,98.7645879 C0.789540896,122.769263 -19.1773898,176.265394 35.9037984,208.500243 C90.9849867,240.735092 152.951323,244.850179 208.032512,229.075679 C263.1137,213.301178 297.539443,181.066329 288.58875,135.114524 C279.638056,89.1627181 259.671126,96.7070444 252.097462,61.0429564 C244.523799,25.3788685 243.146769,5.48928095 227.999442,0.688346037 C212.852116,-4.11258888 195.639244,17.1486943 179.803403,34.9807383 C171.541224,30.8656512 123.345185,28.8081077 108.197858,34.9807383 Z" id="Path" stroke="#3A3A3A" stroke-width="3" fill="#FFFFFF" stroke-linecap="round" stroke-linejoin="round"></path>
                <g id="mouth" transform="translate(117.000000, 130.000000)" stroke="#3A3A3A" stroke-linecap="round" stroke-linejoin="round">
                    <path d="M27.205248,15.2478854 C19.5878827,11.4383615 15.1070797,8.34312345 13.7628387,5.96217107 C11.7464773,2.3907425 16.4513206,0.247885356 19.1398024,0.247885356 C21.8282843,0.247885356 34.5985731,0.247885356 37.287055,0.247885356 C39.9755368,0.247885356 41.3197777,5.24788536 39.3034164,7.3907425 C37.287055,9.53359964 31.2379708,15.2478854 29.2216094,15.2478854 C27.8773685,15.2478854 27.205248,15.2478854 27.205248,15.2478854 Z" id="Path-3" stroke-width="2" fill="#3A3A3A"></path>
                    <path d="M29.274257,15 C21.6308462,25.2424242 11.9641795,29.4325069 0.274257023,27.5702479" id="Path-5" stroke-width="3"></path>
                    <path d="M56.274257,15 C48.6308462,25.2424242 38.9641795,29.4325069 27.274257,27.5702479" id="Path-5" stroke-width="3" transform="translate(41.774257, 21.500000) scale(-1, 1) translate(-41.774257, -21.500000) "></path>
                </g>
                <path d="M179.457648,35.3756016 C195.238883,17.468633 212.3924,-3.88198331 227.487495,0.939123604 C242.582589,5.76023052 243.95487,25.7333877 251.502418,61.5473248 C258.085246,92.7835642 274.063122,91.0130641 283.958145,120.665785 C273.989701,138.148848 255.770996,149.114456 223.765096,151.978863 C185.288722,155.422352 177.730863,114.789178 144.064035,114.789178 C110.397208,114.789178 103.526427,148.535373 64.3629745,151.978863 C39.83991,154.13508 20.9741942,143.32973 7.76582724,119.562813 C11.200599,111.74187 15.4283099,104.838521 19.5868733,99.4274505 C38.1126712,75.321916 42.2295152,39.5079789 42.2295152,35.3756016 C42.2295152,31.2432242 44.2879372,5.76023052 60.0691725,0.939123604 C70.589996,-2.27494767 86.5999448,9.20387831 108.099019,35.3756016 C123.194114,29.1770355 171.22396,31.2432242 179.457648,35.3756016 Z" id="Combined-Shape" stroke="#3A3A3A" stroke-width="3" fill="#F8BD7B" stroke-linecap="round" stroke-linejoin="round"></path>
                <g id="eyes" transform="translate(67.000000, 96.000000)">
                    <path d="M8.23139514,20.4826228 C4.80626029,21.2590562 2.48938235,25.68918 6.07814034,30.2449174 C9.66689833,34.8006549 13.9734079,34.8006549 16.8444143,33.4990157 C19.7154207,32.1973764 20.4331723,25.68918 16.8444143,23.0859014 C13.2556563,20.4826228 11.1024015,19.8318032 8.23139514,20.4826228 Z" id="Path-4" stroke="#3A3A3A" fill="#3A3A3A" stroke-linecap="round" stroke-linejoin="round"></path>
                    <path d="M139.231395,20.4826228 C135.80626,21.2590562 133.489382,25.68918 137.07814,30.2449174 C140.666898,34.8006549 144.973408,34.8006549 147.844414,33.4990157 C150.715421,32.1973764 151.433172,25.68918 147.844414,23.0859014 C144.255656,20.4826228 142.102402,19.8318032 139.231395,20.4826228 Z" id="Path-4-Copy" stroke="#3A3A3A" fill="#3A3A3A" stroke-linecap="round" stroke-linejoin="round" transform="translate(142.774257, 27.247885) scale(-1, 1) translate(-142.774257, -27.247885) "></path>
                    <ellipse id="Oval" stroke="#FFFFFF" fill="#FFFFFF" cx="8.77425702" cy="7.24788536" rx="8" ry="6.5"></ellipse>
                    <ellipse id="Oval-Copy" stroke="#FFFFFF" fill="#FFFFFF" cx="145.774257" cy="7.24788536" rx="8" ry="6.5"></ellipse>
                </g>
                <g id="ears" transform="translate(51.000000, 14.000000)" fill="#FFFFFF">
                    <path d="M8.27767318,41.6157065 C2.75922439,44.7947645 0,44.7947645 0,41.6157065 C0,36.8471195 0,13.0041845 8.27767318,4.82946387 C16.5553464,-3.34525672 20.0043769,0.742103576 23.4534074,3.46701044 C26.9024378,6.1919173 41.3883659,20.4976783 43.4577842,25.2662653 C45.5272025,30.0348523 41.3883659,28.6723989 35.8699171,30.0348523 C32.1909513,30.9431546 22.9935366,34.8034393 8.27767318,41.6157065 Z" id="Path-6"></path>
                    <path d="M149.277673,41.6157065 C143.759224,44.7947645 141,44.7947645 141,41.6157065 C141,36.8471195 141,13.0041845 149.277673,4.82946387 C157.555346,-3.34525672 161.004377,0.742103576 164.453407,3.46701044 C167.902438,6.1919173 182.388366,20.4976783 184.457784,25.2662653 C186.527203,30.0348523 182.388366,28.6723989 176.869917,30.0348523 C173.190951,30.9431546 163.993537,34.8034393 149.277673,41.6157065 Z" id="Path-6-Copy" transform="translate(163.000000, 22.000000) scale(-1, 1) translate(-163.000000, -22.000000) "></path>
                </g>
                <g id="blush" transform="translate(48.000000, 161.000000)">
                    <path d="M11.0707877,19.1617501 C18.6300052,21.3717002 26.0694148,19.0613636 27.6871741,14.0014687 C29.3049334,8.94157386 24.4884298,3.04820006 16.9292123,0.83824992 C9.36999483,-1.37170022 1.93058524,0.938636441 0.312825935,5.99853129 C-1.30493337,11.0584261 3.51157016,16.9517999 11.0707877,19.1617501 Z" id="Oval" fill="#FCDAD8" opacity="0.804292225" filter="url(#filter-1)"></path>
                    <path d="M183.929212,19.1617501 C176.369995,21.3717002 168.930585,19.0613636 167.312826,14.0014687 C165.695067,8.94157386 170.51157,3.04820006 178.070788,0.83824992 C185.630005,-1.37170022 193.069415,0.938636441 194.687174,5.99853129 C196.304933,11.0584261 191.48843,16.9517999 183.929212,19.1617501 Z" id="Oval-Copy-2" fill="#FCD9D7" opacity="0.8" filter="url(#filter-2)"></path>
                </g>
            </g>
        </g>
    </g>
</svg>