<?xml version="1.0" encoding="UTF-8"?>
<svg width="294px" height="242px" viewBox="0 0 294 242" version="1.1" xmlns="http://www.w3.org/2000/svg" xmlns:xlink="http://www.w3.org/1999/xlink">
    <title>shiba-3</title>
    <defs>
        <path d="M108.197858,34.9807383 C86.6243926,8.91852018 70.559046,-2.51227724 60.0018183,0.688346037 C44.1659766,5.48928095 42.1004321,30.8656512 42.1004321,34.9807383 C42.1004321,39.0958254 37.969343,74.7599133 19.3794419,98.7645879 C0.789540896,122.769263 -19.1773898,176.265394 35.9037984,208.500243 C90.9849867,240.735092 152.951323,244.850179 208.032512,229.075679 C263.1137,213.301178 297.539443,181.066329 288.58875,135.114524 C279.638056,89.1627181 259.671126,96.7070444 252.097462,61.0429564 C244.523799,25.3788685 243.146769,5.48928095 227.999442,0.688346037 C212.852116,-4.11258888 195.639244,17.1486943 179.803403,34.9807383 C171.541224,30.8656512 123.345185,28.8081077 108.197858,34.9807383 Z" id="path-1"></path>
        <filter x="-32.1%" y="-45.0%" width="164.3%" height="190.0%" filterUnits="objectBoundingBox" id="filter-3">
            <feGaussianBlur stdDeviation="3" in="SourceGraphic"></feGaussianBlur>
        </filter>
        <filter x="-32.1%" y="-45.0%" width="164.3%" height="190.0%" filterUnits="objectBoundingBox" id="filter-4">
            <feGaussianBlur stdDeviation="3" in="SourceGraphic"></feGaussianBlur>
        </filter>
    </defs>
    <g id="404" stroke="none" stroke-width="1" fill="none" fill-rule="evenodd">
        <g id="Page-3" transform="translate(-365.000000, -330.000000)">
            <g id="shiba-3" transform="translate(367.000000, 332.000000)">
                <path d="M108.197858,34.9807383 C86.6243926,8.91852018 70.559046,-2.51227724 60.0018183,0.688346037 C44.1659766,5.48928095 42.1004321,30.8656512 42.1004321,34.9807383 C42.1004321,39.0958254 37.969343,74.7599133 19.3794419,98.7645879 C0.789540896,122.769263 -19.1773898,176.265394 35.9037984,208.500243 C90.9849867,240.735092 152.951323,244.850179 208.032512,229.075679 C263.1137,213.301178 297.539443,181.066329 288.58875,135.114524 C279.638056,89.1627181 259.671126,96.7070444 252.097462,61.0429564 C244.523799,25.3788685 243.146769,5.48928095 227.999442,0.688346037 C212.852116,-4.11258888 195.639244,17.1486943 179.803403,34.9807383 C171.541224,30.8656512 123.345185,28.8081077 108.197858,34.9807383 Z" id="Path" stroke="#3A3A3A" stroke-width="3" fill="#FFFFFF" stroke-linecap="round" stroke-linejoin="round"></path>
                <g id="mouth" transform="translate(130.000000, 130.000000)" fill="#3A3A3A" stroke="#3A3A3A" stroke-linecap="round" stroke-linejoin="round" stroke-width="2">
                    <path d="M14.205248,15.2478854 C6.58788275,11.4383615 2.10707966,8.34312345 0.76283873,5.96217107 C-1.25352266,2.3907425 3.45132058,0.247885356 6.13980244,0.247885356 C8.82828429,0.247885356 21.5985731,0.247885356 24.287055,0.247885356 C26.9755368,0.247885356 28.3197777,5.24788536 26.3034164,7.3907425 C24.287055,9.53359964 17,15 16.2216094,15.2478854 C15.7026823,15.4131423 15.0305619,15.4131423 14.205248,15.2478854 Z" id="Path-3"></path>
                </g>
                <path d="M179.457648,35.3756016 C195.238883,17.468633 212.3924,-3.88198331 227.487495,0.939123604 C242.582589,5.76023052 243.95487,25.7333877 251.502418,61.5473248 C258.085246,92.7835642 274.063122,91.0130641 283.958145,120.665785 C273.989701,138.148848 255.770996,149.114456 223.765096,151.978863 C185.288722,155.422352 177.730863,114.789178 144.064035,114.789178 C110.397208,114.789178 103.526427,148.535373 64.3629745,151.978863 C39.83991,154.13508 20.9741942,143.32973 7.76582724,119.562813 C11.200599,111.74187 15.4283099,104.838521 19.5868733,99.4274505 C38.1126712,75.321916 42.2295152,39.5079789 42.2295152,35.3756016 C42.2295152,31.2432242 44.2879372,5.76023052 60.0691725,0.939123604 C70.589996,-2.27494767 86.5999448,9.20387831 108.099019,35.3756016 C123.194114,29.1770355 171.22396,31.2432242 179.457648,35.3756016 Z" id="Combined-Shape" stroke="#3A3A3A" stroke-width="3" fill="#F8BD7B" stroke-linecap="round" stroke-linejoin="round"></path>
                <g id="eyes">
                    <g id="mask-tear">
                        <mask id="mask-2" fill="white">
                            <use xlink:href="#path-1"></use>
                        </mask>
                        <g id="Mask"></g>
                        <path d="M275.5,116.454545 C267.5,122.787879 262.166667,127.787879 259.5,131.454545 C255.5,136.954545 250,140.454545 247,142.954545 C244,145.454545 239.5,154.954545 238,158.454545 C236.5,161.954545 228,165.454545 226,168.454545 C224,171.454545 221,181.954545 219.5,185.454545 C218.5,187.787879 215.333333,190.787879 210,194.454545 L238,217.954545 C249,204.954545 255,195.621212 256,189.954545 C257.5,181.454545 263.5,168.954545 267.5,161.454545 C271.5,153.954545 277,144.454545 278,138.954545 C279,133.454545 291.5,117.454545 290,113.454545 C289,110.787879 284.166667,111.787879 275.5,116.454545 Z" id="Path-5-Copy" fill="#DAEFF3" mask="url(#mask-2)" transform="translate(250.062387, 164.977273) scale(-1, 1) translate(-250.062387, -164.977273) "></path>
                        <path d="M73.5,119 C65.5,125.333333 60.1666667,130.333333 57.5,134 C53.5,139.5 48,143 45,145.5 C42,148 37.5,157.5 36,161 C34.5,164.5 26,168 24,171 C22,174 19,184.5 17.5,188 C16.5,190.333333 13.3333333,193.333333 8,197 L36,220.5 C47,207.5 53,198.166667 54,192.5 C55.5,184 61.5,171.5 65.5,164 C69.5,156.5 75,147 76,141.5 C77,136 89.5,120 88,116 C87,113.333333 82.1666667,114.333333 73.5,119 Z" id="Path-5" fill="#DAEFF3" mask="url(#mask-2)"></path>
                        <path d="M108.197858,34.9807383 C86.6243926,8.91852018 70.559046,-2.51227724 60.0018183,0.688346037 C44.1659766,5.48928095 42.1004321,30.8656512 42.1004321,34.9807383 C42.1004321,39.0958254 37.969343,74.7599133 19.3794419,98.7645879 C0.789540896,122.769263 -19.1773898,176.265394 35.9037984,208.500243 C90.9849867,240.735092 152.951323,244.850179 208.032512,229.075679 C263.1137,213.301178 297.539443,181.066329 288.58875,135.114524 C279.638056,89.1627181 259.671126,96.7070444 252.097462,61.0429564 C244.523799,25.3788685 243.146769,5.48928095 227.999442,0.688346037 C212.852116,-4.11258888 195.639244,17.1486943 179.803403,34.9807383 C171.541224,30.8656512 123.345185,28.8081077 108.197858,34.9807383 Z" id="Mask" mask="url(#mask-2)"></path>
                        <path d="M73.5,119 C65.5,125.333333 60.1666667,130.333333 57.5,134 C53.5,139.5 48,143 45,145.5 C42,148 37.5,157.5 36,161 C34.5,164.5 26,168 24,171 C22,174 19,184.5 17.5,188 C16.5,190.333333 13.3333333,193.333333 8,197 L36,220.5 C47,207.5 53,198.166667 54,192.5 C55.5,184 61.5,171.5 65.5,164 C69.5,156.5 75,147 76,141.5 C77,136 89.5,120 88,116 C87,113.333333 82.1666667,114.333333 73.5,119 Z" id="Path-5" fill="#DAEFF3" mask="url(#mask-2)"></path>
                    </g>
                    <ellipse id="Oval-2" stroke="#FFFFFF" fill="#FFFFFF" cx="86.5" cy="96" rx="8" ry="6.5"></ellipse>
                    <path d="M69.5,109.26298 C74.1666667,114.929647 79.3333333,117.76298 85,117.76298 C93.5,117.76298 97,115.26298 97,112.76298 C97,110.26298 90.5,113.26298 83.5,110.76298 C76.5,108.26298 70.5,106.26298 69.5,107.26298 C68.8333333,107.929647 68.8333333,108.596314 69.5,109.26298 Z" id="Path-7" fill="#3A3A3A"></path>
                    <path d="M204.5,109.26298 C209.166667,114.929647 214.333333,117.76298 220,117.76298 C228.5,117.76298 232,115.26298 232,112.76298 C232,110.26298 225.5,113.26298 218.5,110.76298 C211.5,108.26298 205.5,106.26298 204.5,107.26298 C203.833333,107.929647 203.833333,108.596314 204.5,109.26298 Z" id="Path-7-Copy" fill="#3A3A3A" transform="translate(218.000000, 112.381490) scale(-1, 1) translate(-218.000000, -112.381490) "></path>
                    <ellipse id="Oval-Copy" stroke="#FFFFFF" fill="#FFFFFF" cx="212.774257" cy="96" rx="8" ry="6.5"></ellipse>
                </g>
                <g id="ears" transform="translate(51.000000, 14.000000)" fill="#FFFFFF">
                    <path d="M8.27767318,41.6157065 C2.75922439,44.7947645 0,44.7947645 0,41.6157065 C0,36.8471195 0,13.0041845 8.27767318,4.82946387 C16.5553464,-3.34525672 20.0043769,0.742103576 23.4534074,3.46701044 C26.9024378,6.1919173 41.3883659,20.4976783 43.4577842,25.2662653 C45.5272025,30.0348523 41.3883659,28.6723989 35.8699171,30.0348523 C32.1909513,30.9431546 22.9935366,34.8034393 8.27767318,41.6157065 Z" id="Path-6"></path>
                    <path d="M149.277673,41.6157065 C143.759224,44.7947645 141,44.7947645 141,41.6157065 C141,36.8471195 141,13.0041845 149.277673,4.82946387 C157.555346,-3.34525672 161.004377,0.742103576 164.453407,3.46701044 C167.902438,6.1919173 182.388366,20.4976783 184.457784,25.2662653 C186.527203,30.0348523 182.388366,28.6723989 176.869917,30.0348523 C173.190951,30.9431546 163.993537,34.8034393 149.277673,41.6157065 Z" id="Path-6-Copy" transform="translate(163.000000, 22.000000) scale(-1, 1) translate(-163.000000, -22.000000) "></path>
                </g>
                <g id="blush" transform="translate(61.000000, 161.000000)">
                    <path d="M11.0707877,19.1617501 C18.6300052,21.3717002 26.0694148,19.0613636 27.6871741,14.0014687 C29.3049334,8.94157386 24.4884298,3.04820006 16.9292123,0.83824992 C9.36999483,-1.37170022 1.93058524,0.938636441 0.312825935,5.99853129 C-1.30493337,11.0584261 3.51157016,16.9517999 11.0707877,19.1617501 Z" id="Oval" fill="#FCDAD8" opacity="0.804292225" filter="url(#filter-3)"></path>
                    <path d="M154.929212,19.1617501 C147.369995,21.3717002 139.930585,19.0613636 138.312826,14.0014687 C136.695067,8.94157386 141.51157,3.04820006 149.070788,0.83824992 C156.630005,-1.37170022 164.069415,0.938636441 165.687174,5.99853129 C167.304933,11.0584261 162.48843,16.9517999 154.929212,19.1617501 Z" id="Oval-Copy-2" fill="#FCD9D7" opacity="0.8" filter="url(#filter-4)"></path>
                </g>
                <path d="M108.197858,34.9807383 C86.6243926,8.91852018 70.559046,-2.51227724 60.0018183,0.688346037 C44.1659766,5.48928095 42.1004321,30.8656512 42.1004321,34.9807383 C42.1004321,39.0958254 37.969343,74.7599133 19.3794419,98.7645879 C0.789540896,122.769263 -19.1773898,176.265394 35.9037984,208.500243 C90.9849867,240.735092 152.951323,244.850179 208.032512,229.075679 C263.1137,213.301178 297.539443,181.066329 288.58875,135.114524 C279.638056,89.1627181 259.671126,96.7070444 252.097462,61.0429564 C244.523799,25.3788685 243.146769,5.48928095 227.999442,0.688346037 C212.852116,-4.11258888 195.639244,17.1486943 179.803403,34.9807383 C171.541224,30.8656512 123.345185,28.8081077 108.197858,34.9807383 Z" id="Path" stroke="#3A3A3A" stroke-width="3" stroke-linecap="round" stroke-linejoin="round"></path>
                <path d="M135,167.5 C135.333333,159.833333 138.166667,156 143.5,156 C151.5,156 153.5,161 153.5,167.5" id="Path-9" stroke="#3A3A3A" stroke-width="3" stroke-linecap="round" stroke-linejoin="round"></path>
            </g>
        </g>
    </g>
</svg>