<?xml version="1.0" encoding="UTF-8"?>
<svg width="294px" height="242px" viewBox="0 0 294 242" version="1.1" xmlns="http://www.w3.org/2000/svg" xmlns:xlink="http://www.w3.org/1999/xlink">
    <title>shiba-3</title>
    <defs>
        <path d="M108.197858,34.9807383 C86.6243926,8.91852018 70.559046,-2.51227724 60.0018183,0.688346037 C44.1659766,5.48928095 42.1004321,30.8656512 42.1004321,34.9807383 C42.1004321,39.0958254 37.969343,74.7599133 19.3794419,98.7645879 C0.789540896,122.769263 -19.1773898,176.265394 35.9037984,208.500243 C90.9849867,240.735092 152.951323,244.850179 208.032512,229.075679 C263.1137,213.301178 297.539443,181.066329 288.58875,135.114524 C279.638056,89.1627181 259.671126,96.7070444 252.097462,61.0429564 C244.523799,25.3788685 243.146769,5.48928095 227.999442,0.688346037 C212.852116,-4.11258888 195.639244,17.1486943 179.803403,34.9807383 C171.541224,30.8656512 123.345185,28.8081077 108.197858,34.9807383 Z" id="path-1"></path>
        <filter x="-32.1%" y="-45.0%" width="164.3%" height="190.0%" filterUnits="objectBoundingBox" id="filter-3">
            <feGaussianBlur stdDeviation="3" in="SourceGraphic"></feGaussianBlur>
        </filter>
        <filter x="-32.1%" y="-45.0%" width="164.3%" height="190.0%" filterUnits="objectBoundingBox" id="filter-4">
            <feGaussianBlur stdDeviation="3" in="SourceGraphic"></feGaussianBlur>
        </filter>
    </defs>
    <g id="404" stroke="none" stroke-width="1" fill="none" fill-rule="evenodd">
        <g id="Page-3" transform="translate(-365.000000, -330.000000)">
            <g id="shiba-3" transform="translate(367.000000, 332.000000)">
                <path d="M108.197858,34.9807383 C86.6243926,8.91852018 70.559046,-2.51227724 60.0018183,0.688346037 C44.1659766,5.48928095 42.1004321,30.8656512 42.1004321,34.9807383 C42.1004321,39.0958254 37.969343,74.7599133 19.3794419,98.7645879 C0.789540896,122.769263 -19.1773898,176.265394 35.9037984,208.500243 C90.9849867,240.735092 152.951323,244.850179 208.032512,229.075679 C263.1137,213.301178 297.539443,181.066329 288.58875,135.114524 C279.638056,89.1627181 259.671126,96.7070444 252.097462,61.0429564 C244.523799,25.3788685 243.146769,5.48928095 227.999442,0.688346037 C212.852116,-4.11258888 195.639244,17.1486943 179.803403,34.9807383 C171.541224,30.8656512 123.345185,28.8081077 108.197858,34.9807383 Z" id="Path" stroke="#3A3A3A" stroke-width="3" fill="#FFFFFF" stroke-linecap="round" stroke-linejoin="round"></path>
                <g id="mouth" transform="translate(130.000000, 130.000000)" fill="#3A3A3A" stroke="#3A3A3A" stroke-linecap="round" stroke-linejoin="round" stroke-width="2">
                    <path d="M14.205248,15.2478854 C6.58788275,11.4383615 2.10707966,8.34312345 0.76283873,5.96217107 C-1.25352266,2.3907425 3.45132058,0.247885356 6.13980244,0.247885356 C8.82828429,0.247885356 21.5985731,0.247885356 24.287055,0.247885356 C26.9755368,0.247885356 28.3197777,5.24788536 26.3034164,7.3907425 C24.287055,9.53359964 17,15 16.2216094,15.2478854 C15.7026823,15.4131423 15.0305619,15.4131423 14.205248,15.2478854 Z" id="Path-3"></path>
                </g>
                <path d="M179.457648,35.3756016 C195.238883,17.468633 212.3924,-3.88198331 227.487495,0.939123604 C242.582589,5.76023052 243.95487,25.7333877 251.502418,61.5473248 C258.085246,92.7835642 274.063122,91.0130641 283.958145,120.665785 C273.989701,138.148848 255.770996,149.114456 223.765096,151.978863 C185.288722,155.422352 177.730863,114.789178 144.064035,114.789178 C110.397208,114.789178 103.526427,148.535373 64.3629745,151.978863 C39.83991,154.13508 20.9741942,143.32973 7.76582724,119.562813 C11.200599,111.74187 15.4283099,104.838521 19.5868733,99.4274505 C38.1126712,75.321916 42.2295152,39.5079789 42.2295152,35.3756016 C42.2295152,31.2432242 44.2879372,5.76023052 60.0691725,0.939123604 C70.589996,-2.27494767 86.5999448,9.20387831 108.099019,35.3756016 C123.194114,29.1770355 171.22396,31.2432242 179.457648,35.3756016 Z" id="Combined-Shape" stroke="#3A3A3A" stroke-width="3" fill="#F8BD7B" stroke-linecap="round" stroke-linejoin="round"></path>
                <g id="eyes">
                    <g id="mask-tear">
                        <mask id="mask-2" fill="white">
                            <use xlink:href="#path-1"></use>
                        </mask>
                        <g id="Mask"></g>
                        <path d="M83.7263028,115.23963 C84.8337335,115.010507 85.7238789,114.97683 86.3938894,115.168262 C86.955075,115.328601 87.3385139,115.660038 87.5318354,116.175562 C88.3599766,118.383938 84.6558052,124.330745 81.2789594,130.001331 C78.5610815,134.565341 75.9477037,138.992545 75.508065,141.410557 C74.6659058,146.042433 70.5952066,153.527521 66.9605793,160.236621 C66.3061265,161.444665 65.6652522,162.627652 65.0588235,163.764706 C61.0381956,171.303383 55.0152186,183.869982 53.5076082,192.413107 C52.5250233,197.981089 46.6457308,207.101566 35.9396699,219.796602 L35.9396699,219.796602 L8.82301437,197.037981 C13.9471395,193.458136 16.9730625,190.498816 17.9595725,188.19696 C18.5047773,186.924815 19.2477085,184.733986 20.0682253,182.311421 C21.4943844,178.100705 23.1522033,173.173083 24.4160251,171.27735 C25.2911746,169.964626 27.462367,168.569786 29.6982361,167.106338 C32.6099135,165.200552 35.6086741,163.182389 36.4595725,161.19696 C37.9393523,157.74414 42.3583615,148.35222 45.3200922,145.884111 C45.9896313,145.326161 46.7846783,144.718195 47.6599162,144.048658 C50.7316773,141.698829 54.7716069,138.601632 57.904368,134.294086 C60.5512264,130.654656 65.8467054,125.698535 73.7800792,119.417079 C78.0352391,117.128432 81.349248,115.731435 83.7263028,115.23963 Z" id="Path-5" stroke="#DAEFF3" fill="#DAEFF3" mask="url(#mask-2)"></path>
                        <path d="M285.726303,115.694176 C286.833733,115.465052 287.723879,115.431376 288.393889,115.622807 C288.955075,115.783146 289.338514,116.114583 289.531835,116.630107 C290.359977,118.838484 286.655805,124.78529 283.278959,130.455876 C280.561081,135.019887 277.947704,139.44709 277.508065,141.865103 C276.665906,146.496979 272.595207,153.982066 268.960579,160.691166 C268.306126,161.89921 267.665252,163.082198 267.058824,164.219251 C263.038196,171.757929 257.015219,184.324527 255.507608,192.867653 C254.525023,198.435634 248.645731,207.556111 237.93967,220.251148 L237.93967,220.251148 L210.823014,197.492526 C215.947139,193.912682 218.973062,190.953362 219.959573,188.651505 C220.504777,187.379361 221.247709,185.188531 222.068225,182.765966 C223.494384,178.555251 225.152203,173.627628 226.416025,171.731896 C227.291175,170.419171 229.462367,169.024331 231.698236,167.560884 C234.609913,165.655098 237.608674,163.636935 238.459573,161.651505 C239.939352,158.198686 244.358362,148.806765 247.320092,146.338656 C247.989631,145.780707 248.784678,145.17274 249.659916,144.503203 C252.731677,142.153375 256.771607,139.056178 259.904368,134.748631 C262.551226,131.109201 267.846705,126.153081 275.780079,119.871625 C280.035239,117.582977 283.349248,116.18598 285.726303,115.694176 Z" id="Path-5-Copy" stroke="#DAEFF3" fill="#DAEFF3" mask="url(#mask-2)" transform="translate(250.062387, 167.977273) scale(-1, 1) translate(-250.062387, -167.977273) "></path>
                    </g>
                    <ellipse id="Oval-2" stroke="#FFFFFF" fill="#FFFFFF" cx="86.5" cy="96" rx="8" ry="6.5"></ellipse>
                    <path d="M69.5,109.26298 C74.1666667,114.929647 79.3333333,117.76298 85,117.76298 C93.5,117.76298 97,115.26298 97,112.76298 C97,110.26298 90.5,113.26298 83.5,110.76298 C76.5,108.26298 70.5,106.26298 69.5,107.26298 C68.8333333,107.929647 68.8333333,108.596314 69.5,109.26298 Z" id="Path-7" fill="#3A3A3A"></path>
                    <path d="M204.5,109.26298 C209.166667,114.929647 214.333333,117.76298 220,117.76298 C228.5,117.76298 232,115.26298 232,112.76298 C232,110.26298 225.5,113.26298 218.5,110.76298 C211.5,108.26298 205.5,106.26298 204.5,107.26298 C203.833333,107.929647 203.833333,108.596314 204.5,109.26298 Z" id="Path-7-Copy" fill="#3A3A3A" transform="translate(218.000000, 112.381490) scale(-1, 1) translate(-218.000000, -112.381490) "></path>
                    <ellipse id="Oval-Copy" stroke="#FFFFFF" fill="#FFFFFF" cx="212.774257" cy="96" rx="8" ry="6.5"></ellipse>
                </g>
                <g id="ears" transform="translate(51.000000, 14.000000)" fill="#FFFFFF">
                    <path d="M8.27767318,41.6157065 C2.75922439,44.7947645 0,44.7947645 0,41.6157065 C0,36.8471195 0,13.0041845 8.27767318,4.82946387 C16.5553464,-3.34525672 20.0043769,0.742103576 23.4534074,3.46701044 C26.9024378,6.1919173 41.3883659,20.4976783 43.4577842,25.2662653 C45.5272025,30.0348523 41.3883659,28.6723989 35.8699171,30.0348523 C32.1909513,30.9431546 22.9935366,34.8034393 8.27767318,41.6157065 Z" id="Path-6"></path>
                    <path d="M149.277673,41.6157065 C143.759224,44.7947645 141,44.7947645 141,41.6157065 C141,36.8471195 141,13.0041845 149.277673,4.82946387 C157.555346,-3.34525672 161.004377,0.742103576 164.453407,3.46701044 C167.902438,6.1919173 182.388366,20.4976783 184.457784,25.2662653 C186.527203,30.0348523 182.388366,28.6723989 176.869917,30.0348523 C173.190951,30.9431546 163.993537,34.8034393 149.277673,41.6157065 Z" id="Path-6-Copy" transform="translate(163.000000, 22.000000) scale(-1, 1) translate(-163.000000, -22.000000) "></path>
                </g>
                <g id="blush" transform="translate(61.000000, 161.000000)">
                    <path d="M11.0707877,19.1617501 C18.6300052,21.3717002 26.0694148,19.0613636 27.6871741,14.0014687 C29.3049334,8.94157386 24.4884298,3.04820006 16.9292123,0.83824992 C9.36999483,-1.37170022 1.93058524,0.938636441 0.312825935,5.99853129 C-1.30493337,11.0584261 3.51157016,16.9517999 11.0707877,19.1617501 Z" id="Oval" fill="#FCDAD8" opacity="0.804292225" filter="url(#filter-3)"></path>
                    <path d="M154.929212,19.1617501 C147.369995,21.3717002 139.930585,19.0613636 138.312826,14.0014687 C136.695067,8.94157386 141.51157,3.04820006 149.070788,0.83824992 C156.630005,-1.37170022 164.069415,0.938636441 165.687174,5.99853129 C167.304933,11.0584261 162.48843,16.9517999 154.929212,19.1617501 Z" id="Oval-Copy-2" fill="#FCD9D7" opacity="0.8" filter="url(#filter-4)"></path>
                </g>
                <path d="M108.197858,34.9807383 C86.6243926,8.91852018 70.559046,-2.51227724 60.0018183,0.688346037 C44.1659766,5.48928095 42.1004321,30.8656512 42.1004321,34.9807383 C42.1004321,39.0958254 37.969343,74.7599133 19.3794419,98.7645879 C0.789540896,122.769263 -19.1773898,176.265394 35.9037984,208.500243 C90.9849867,240.735092 152.951323,244.850179 208.032512,229.075679 C263.1137,213.301178 297.539443,181.066329 288.58875,135.114524 C279.638056,89.1627181 259.671126,96.7070444 252.097462,61.0429564 C244.523799,25.3788685 243.146769,5.48928095 227.999442,0.688346037 C212.852116,-4.11258888 195.639244,17.1486943 179.803403,34.9807383 C171.541224,30.8656512 123.345185,28.8081077 108.197858,34.9807383 Z" id="Path" stroke="#3A3A3A" stroke-width="3" stroke-linecap="round" stroke-linejoin="round"></path>
                <path d="M135,167.5 C135.333333,159.833333 138.166667,156 143.5,156 C151.5,156 153.5,161 153.5,167.5" id="Path-9" stroke="#3A3A3A" stroke-width="3" stroke-linecap="round" stroke-linejoin="round"></path>
            </g>
        </g>
    </g>
</svg>