<?xml version="1.0" encoding="UTF-8"?>
<svg width="294px" height="242px" viewBox="0 0 294 242" version="1.1" xmlns="http://www.w3.org/2000/svg" xmlns:xlink="http://www.w3.org/1999/xlink">
    <title>shiba-2</title>
    <defs>
        <filter x="-32.1%" y="-45.0%" width="164.3%" height="190.0%" filterUnits="objectBoundingBox" id="filter-1">
            <feGaussianBlur stdDeviation="3" in="SourceGraphic"></feGaussianBlur>
        </filter>
        <filter x="-32.1%" y="-45.0%" width="164.3%" height="190.0%" filterUnits="objectBoundingBox" id="filter-2">
            <feGaussianBlur stdDeviation="3" in="SourceGraphic"></feGaussianBlur>
        </filter>
    </defs>
    <g id="404" stroke="none" stroke-width="1" fill="none" fill-rule="evenodd">
        <g id="Page-2" transform="translate(-365.000000, -330.000000)">
            <g id="shiba-2" transform="translate(367.000000, 332.000000)">
                <path d="M108.197858,34.9807383 C86.6243926,8.91852018 70.559046,-2.51227724 60.0018183,0.688346037 C44.1659766,5.48928095 42.1004321,30.8656512 42.1004321,34.9807383 C42.1004321,39.0958254 37.969343,74.7599133 19.3794419,98.7645879 C0.789540896,122.769263 -19.1773898,176.265394 35.9037984,208.500243 C90.9849867,240.735092 152.951323,244.850179 208.032512,229.075679 C263.1137,213.301178 297.539443,181.066329 288.58875,135.114524 C279.638056,89.1627181 259.671126,96.7070444 252.097462,61.0429564 C244.523799,25.3788685 243.146769,5.48928095 227.999442,0.688346037 C212.852116,-4.11258888 195.639244,17.1486943 179.803403,34.9807383 C171.541224,30.8656512 123.345185,28.8081077 108.197858,34.9807383 Z" id="Path" stroke="#3A3A3A" stroke-width="3" fill="#FFFFFF" stroke-linecap="round" stroke-linejoin="round"></path>
                <g id="mouth" transform="translate(130.000000, 130.000000)" stroke="#3A3A3A" stroke-linecap="round" stroke-linejoin="round">
                    <path d="M14.205248,15.2478854 C6.58788275,11.4383615 2.10707966,8.34312345 0.76283873,5.96217107 C-1.25352266,2.3907425 3.45132058,0.247885356 6.13980244,0.247885356 C8.82828429,0.247885356 21.5985731,0.247885356 24.287055,0.247885356 C26.9755368,0.247885356 28.3197777,5.24788536 26.3034164,7.3907425 C24.287055,9.53359964 17,15 16.2216094,15.2478854 C15.7026823,15.4131423 15.0305619,15.4131423 14.205248,15.2478854 Z" id="Path-3" stroke-width="2" fill="#3A3A3A"></path>
                    <path d="M4.5,30.5 C11.8333333,28.5 18.3333333,28.5 24,30.5" id="Path-7" stroke-width="3"></path>
                </g>
                <path d="M179.457648,35.3756016 C195.238883,17.468633 212.3924,-3.88198331 227.487495,0.939123604 C242.582589,5.76023052 243.95487,25.7333877 251.502418,61.5473248 C258.085246,92.7835642 274.063122,91.0130641 283.958145,120.665785 C273.989701,138.148848 255.770996,149.114456 223.765096,151.978863 C185.288722,155.422352 177.730863,114.789178 144.064035,114.789178 C110.397208,114.789178 103.526427,148.535373 64.3629745,151.978863 C39.83991,154.13508 20.9741942,143.32973 7.76582724,119.562813 C11.200599,111.74187 15.4283099,104.838521 19.5868733,99.4274505 C38.1126712,75.321916 42.2295152,39.5079789 42.2295152,35.3756016 C42.2295152,31.2432242 44.2879372,5.76023052 60.0691725,0.939123604 C70.589996,-2.27494767 86.5999448,9.20387831 108.099019,35.3756016 C123.194114,29.1770355 171.22396,31.2432242 179.457648,35.3756016 Z" id="Combined-Shape" stroke="#3A3A3A" stroke-width="3" fill="#F8BD7B" stroke-linecap="round" stroke-linejoin="round"></path>
                <g id="eyes" transform="translate(66.000000, 83.000000)">
                    <path d="M5.10134715,34.0096629 C14.4123791,35.3392569 19.5683732,36 20.5692194,36 C21.2937178,36 22.267627,36.5697698 22.9225542,37.4118191 C23.4442512,38.0825724 23.7697068,38.9480531 23.578929,39.9019419 C23.4834222,40.379476 23.2160309,40.6851549 22.8669029,40.8897407 C22.2584124,41.2463107 21.4394328,41.3353267 20.7253634,41.426414 C19.634935,41.5655101 18.8580258,41.8043532 18.6220058,42.2763932 C18.2946112,42.4141596 18.0519663,42.4311085 17.7647728,42.4274702 C16.887374,42.4163547 15.6525894,42.1915461 14.2833447,41.9460966 C13.4355217,41.7941167 12.5377175,41.6332806 11.6399301,41.5050253 C9.27960292,41.1678357 6.47218567,41.4947995 4.25398246,41.7579994 C3.16827982,41.8868229 2.22956512,42 1.56921938,42 C1.26173223,42 1.01669597,41.9256632 0.839201857,41.7886428 C0.654809964,41.6462975 0.551344545,41.4409411 0.515069829,41.2232928 C0.47126572,40.9604682 0.522460577,40.6775571 0.659861336,40.4406957 C0.780868325,40.232095 0.971320992,40.0596791 1.22733326,39.9743416 C1.59921639,39.8503806 1.84935664,39.6933353 2.01405409,39.5251547 C2.33753913,38.2363726 1.93559233,37.591281 1.39169727,36.8134711 C1.26071292,36.6261538 1.12296307,36.4292277 0.985244529,36.2226499 C1.01268448,35.7606838 1.20393081,35.5944509 1.47156948,35.4160251 C2.17923028,34.9442513 3.39194455,34.480766 5.10134715,34.0096629 Z" id="Path-8-Copy" stroke="#DAEFF3" fill="#DAEFF3"></path>
                    <path d="M7.27618415,20.3018053 C2.70933769,21.3000767 -0.379832899,26.9959502 4.40517776,32.853327 C9.19018842,38.7107037 14.9322012,38.7107037 18.7602097,37.0371675 C22.5882183,35.3636313 23.5452204,26.9959502 18.7602097,23.6488778 C13.9751991,20.3018053 11.1041927,19.4650372 7.27618415,20.3018053 Z" id="Path-4" stroke="#3A3A3A" fill="#3A3A3A" stroke-linecap="round" stroke-linejoin="round"></path>
                    <path d="M137.032128,34.0096629 C146.34316,35.3392569 151.499154,36 152.5,36 C153.224498,36 154.198408,36.5697698 154.853335,37.4118191 C155.375032,38.0825724 155.700487,38.9480531 155.50971,39.9019419 C155.414203,40.379476 155.146811,40.6851549 154.797684,40.8897407 C154.189193,41.2463107 153.370213,41.3353267 152.656144,41.426414 C151.565716,41.5655101 150.788806,41.8043532 150.552786,42.2763932 C150.225392,42.4141596 149.982747,42.4311085 149.695553,42.4274702 C148.818155,42.4163547 147.58337,42.1915461 146.214125,41.9460966 C145.366302,41.7941167 144.468498,41.6332806 143.570711,41.5050253 C141.210384,41.1678357 138.402966,41.4947995 136.184763,41.7579994 C135.09906,41.8868229 134.160346,42 133.5,42 C133.192513,42 132.947477,41.9256632 132.769982,41.7886428 C132.585591,41.6462975 132.482125,41.4409411 132.44585,41.2232928 C132.402046,40.9604682 132.453241,40.6775571 132.590642,40.4406957 C132.711649,40.232095 132.902102,40.0596791 133.158114,39.9743416 C133.529997,39.8503806 133.780137,39.6933353 133.944835,39.5251547 C134.26832,38.2363726 133.866373,37.591281 133.322478,36.8134711 C133.191494,36.6261538 133.053744,36.4292277 132.916025,36.2226499 C132.943465,35.7606838 133.134711,35.5944509 133.40235,35.4160251 C134.110011,34.9442513 135.322725,34.480766 137.032128,34.0096629 Z" id="Path-8" stroke="#DAEFF3" fill="#DAEFF3"></path>
                    <path d="M142.276184,20.3018053 C137.709338,21.3000767 134.620167,26.9959502 139.405178,32.853327 C144.190188,38.7107037 149.932201,38.7107037 153.76021,37.0371675 C157.588218,35.3636313 158.54522,26.9959502 153.76021,23.6488778 C148.975199,20.3018053 146.104193,19.4650372 142.276184,20.3018053 Z" id="Path-4-Copy" stroke="#3A3A3A" fill="#3A3A3A" stroke-linecap="round" stroke-linejoin="round" transform="translate(147.000000, 29.000000) scale(-1, 1) translate(-147.000000, -29.000000) "></path>
                    <ellipse id="Oval-2" stroke="#FFFFFF" fill="#FFFFFF" cx="11.774257" cy="7" rx="8" ry="6.5"></ellipse>
                    <ellipse id="Oval-Copy-3" stroke="#FFFFFF" fill="#FFFFFF" cx="14.5" cy="32" rx="4" ry="3.5"></ellipse>
                    <ellipse id="Oval-Copy-5" stroke="#FFFFFF" fill="#FFFFFF" cx="7.5" cy="26" rx="3" ry="2.5"></ellipse>
                    <ellipse id="Oval-Copy-6" stroke="#FFFFFF" fill="#FFFFFF" cx="151.5" cy="26" rx="3" ry="2.5"></ellipse>
                    <ellipse id="Oval-Copy-4" stroke="#FFFFFF" fill="#FFFFFF" cx="144.5" cy="32" rx="4" ry="3.5"></ellipse>
                    <ellipse id="Oval-Copy" stroke="#FFFFFF" fill="#FFFFFF" cx="146.774257" cy="7" rx="8" ry="6.5"></ellipse>
                </g>
                <g id="ears" transform="translate(51.000000, 14.000000)" fill="#FFFFFF">
                    <path d="M8.27767318,41.6157065 C2.75922439,44.7947645 0,44.7947645 0,41.6157065 C0,36.8471195 0,13.0041845 8.27767318,4.82946387 C16.5553464,-3.34525672 20.0043769,0.742103576 23.4534074,3.46701044 C26.9024378,6.1919173 41.3883659,20.4976783 43.4577842,25.2662653 C45.5272025,30.0348523 41.3883659,28.6723989 35.8699171,30.0348523 C32.1909513,30.9431546 22.9935366,34.8034393 8.27767318,41.6157065 Z" id="Path-6"></path>
                    <path d="M149.277673,41.6157065 C143.759224,44.7947645 141,44.7947645 141,41.6157065 C141,36.8471195 141,13.0041845 149.277673,4.82946387 C157.555346,-3.34525672 161.004377,0.742103576 164.453407,3.46701044 C167.902438,6.1919173 182.388366,20.4976783 184.457784,25.2662653 C186.527203,30.0348523 182.388366,28.6723989 176.869917,30.0348523 C173.190951,30.9431546 163.993537,34.8034393 149.277673,41.6157065 Z" id="Path-6-Copy" transform="translate(163.000000, 22.000000) scale(-1, 1) translate(-163.000000, -22.000000) "></path>
                </g>
                <g id="blush" transform="translate(48.000000, 161.000000)">
                    <path d="M11.0707877,19.1617501 C18.6300052,21.3717002 26.0694148,19.0613636 27.6871741,14.0014687 C29.3049334,8.94157386 24.4884298,3.04820006 16.9292123,0.83824992 C9.36999483,-1.37170022 1.93058524,0.938636441 0.312825935,5.99853129 C-1.30493337,11.0584261 3.51157016,16.9517999 11.0707877,19.1617501 Z" id="Oval" fill="#FCDAD8" opacity="0.804292225" filter="url(#filter-1)"></path>
                    <path d="M183.929212,19.1617501 C176.369995,21.3717002 168.930585,19.0613636 167.312826,14.0014687 C165.695067,8.94157386 170.51157,3.04820006 178.070788,0.83824992 C185.630005,-1.37170022 193.069415,0.938636441 194.687174,5.99853129 C196.304933,11.0584261 191.48843,16.9517999 183.929212,19.1617501 Z" id="Oval-Copy-2" fill="#FCD9D7" opacity="0.8" filter="url(#filter-2)"></path>
                </g>
            </g>
        </g>
    </g>
</svg>