<?xml version="1.0" encoding="UTF-8"?>
<svg width="433px" height="415px" viewBox="0 0 433 415" version="1.1" xmlns="http://www.w3.org/2000/svg" xmlns:xlink="http://www.w3.org/1999/xlink">
    <title>shibe</title>
    <defs>
        <filter x="-32.1%" y="-45.0%" width="164.3%" height="190.0%" filterUnits="objectBoundingBox" id="filter-1">
            <feGaussianBlur stdDeviation="3" in="SourceGraphic"></feGaussianBlur>
        </filter>
    </defs>
    <g id="404" stroke="none" stroke-width="1" fill="none" fill-rule="evenodd" opacity="0.122884115">
        <g id="Page-3-Copy" transform="translate(-549.000000, -304.000000)">
            <g id="shibe" transform="translate(551.000000, 306.000000)">
                <path d="M212.99819,143.886265 C186.060196,197.48968 100.402239,321 100.402239,321 C100.402239,321 46.462793,316.762576 16.8489792,271.210266 C2.68723046,249.429906 -1.06737807,232.257745 0.244090828,215.509326 C1.68247607,197.235435 9.17054039,179.45944 15.791343,156.799815 C15.791343,156.799815 4.15734478,118.662998 8.3878896,100.653945 C12.6184344,82.6448926 58.0967912,109.128793 61.2696998,113.366218 C61.2696998,113.366218 87.7106049,101.713301 120.497327,104.891369 C153.28405,108.069437 168.090956,114.425574 168.090956,114.425574 C168.090956,114.425574 192.416589,91.1197409 210.396405,94.297809 C210.396405,94.297809 218.857494,99.5945892 220.972767,121.841066 C221.321787,125.495844 218.296947,133.335079 212.99819,143.886265" id="Fill-1" fill="#FFFFFF"></path>
                <path d="M212.989342,144.677158 L151.620967,206.590153 C151.620967,206.590153 142.091717,209.7549 132.562466,208.699984 C123.033215,207.645069 111.386353,189.711504 97.6218798,187.601673 C83.8574065,185.491842 75.3869614,193.931166 65.8577107,206.590153 C56.3284599,219.24914 40.4463754,213.974562 21.3878739,211.864731 C13.5633002,210.9997 6.08813242,213.162277 0,216 C1.43997567,197.802706 8.93631958,180.101223 15.5644429,157.536579 C15.5644429,157.536579 3.91758086,119.559619 8.15280341,101.626054 C12.388026,83.6924894 57.9166684,110.065379 61.0930853,114.285041 C61.0930853,114.285041 87.5632262,102.68097 120.386201,105.845716 C153.209176,109.010463 168.032455,115.339956 168.032455,115.339956 C168.032455,115.339956 192.384984,92.131814 210.38468,95.2965607 C210.38468,95.2965607 218.855125,100.571139 220.972737,122.724365 C221.322142,126.363824 218.293958,134.170199 212.989342,144.677158" id="Fill-3" fill="#F8BD7B"></path>
                <path d="M207.20272,109.215023 C206.386571,107.348184 204.201295,106.502703 202.317546,107.299447 C198.104683,109.083645 190.524938,112.469808 186.498532,115.343172 C180.730084,119.461449 177.653011,122.252172 179.568723,123.854136 C181.485502,125.4561 192.106094,126.586587 195.937519,129.789456 C199.77001,132.993384 209.229242,138.515499 210.513132,136.609458 C211.631874,134.949221 210.940385,117.767308 207.20272,109.215023" id="Fill-5" fill="#FFFFFF"></path>
                <path d="M212.99819,143.886265 C186.060196,197.48968 100.402239,321 100.402239,321 C100.402239,321 46.462793,316.762576 16.8489792,271.210266 C2.68723046,249.429906 -1.06737807,232.257745 0.244090828,215.509326 C1.68247607,197.235435 9.17054039,179.45944 15.791343,156.799815 C15.791343,156.799815 4.15734478,118.662998 8.3878896,100.653945 C12.6184344,82.6448926 58.0967912,109.128793 61.2696998,113.366218 C61.2696998,113.366218 87.7106049,101.713301 120.497327,104.891369 C153.28405,108.069437 168.090956,114.425574 168.090956,114.425574 C168.090956,114.425574 192.416589,91.1197409 210.396405,94.297809 C210.396405,94.297809 218.857494,99.5945892 220.972767,121.841066 C221.321787,125.495844 218.296947,133.335079 212.99819,143.886265 Z" id="Stroke-7" stroke="#3A3A3A" stroke-width="3" stroke-linecap="round" stroke-linejoin="round"></path>
                <path d="M391.857322,342.789439 C380.199625,402.069431 368.541928,401.01086 353.704859,403.128003 C338.86779,405.245145 317.671977,399.952289 314.492605,392.54229 C311.313233,385.132291 322.97093,379.839434 326.150302,359.72658 C329.329674,339.613725 312.373024,327.969441 312.373024,327.969441 C304.954489,347.023724 268.921607,370.312292 260.443282,391.483718 C251.964957,412.655144 242.426841,411.596573 220.171238,410.538002 C197.915634,409.47943 184.138356,394.659432 203.214588,378.780863 C222.290819,362.902293 223.35061,336.438011 223.35061,336.438011 C201.095006,350.199438 154.464218,341.730868 154.464218,341.730868 C154.464218,341.730868 154.103889,342.429525 153.404428,343.689224 C150.892724,348.304595 144.02528,360.372308 134.868689,372.556464 C124.027031,387.016547 109.974207,401.635417 96.175733,404.186574 C67.5613857,409.47943 50.6047355,389.366576 47.4253635,385.132291 C44.4367539,381.152063 44.2565895,373.424492 66.2684411,356.677894 C67.6673648,355.619323 69.1510717,354.518409 70.7407576,353.375152 C102.534477,318.442299 81.338664,331.145155 135.387987,223.170883 C189.437309,115.196611 246.666004,100.376613 246.666004,100.376613 C230.514795,65.07326 240.328456,43.2243485 252.293492,26.5941935 C252.886975,25.7685079 253.480458,24.9639937 254.084538,24.1594795 C266.802026,7.22233882 307.07407,-17.1248009 353.704859,17.8080517 C400.335647,52.7409044 370.661509,110.962326 370.661509,110.962326 C401.395437,125.782324 427.890203,161.773748 428.949994,212.58517 C430.009785,263.396592 414.112925,302.56373 391.857322,342.789439" id="Fill-9" fill="#FDFDFD"></path>
                <line x1="332" y1="146" x2="344" y2="160" id="Stroke-11" stroke="#454545" stroke-width="3" stroke-linecap="round" stroke-linejoin="round"></line>
                <line x1="346" y1="146" x2="329" y2="160" id="Stroke-13" stroke="#3A3A3A" stroke-width="3" stroke-linecap="round" stroke-linejoin="round"></line>
                <path d="M338.880627,78.2217111 C335.697974,134.296712 275.227576,120.542467 275.227576,120.542467 C275.227576,120.542467 262.496966,129.006618 252.949009,158.631147 C243.401051,188.255676 245.52282,177.675487 251.888125,239.040583 C258.25343,300.405679 223.244252,336.378321 223.244252,336.378321 C224.305136,330.030208 221.122484,314.159924 221.122484,314.159924 C190.356843,327.91417 165.956507,317.333981 165.956507,317.333981 C162.773854,327.91417 153.225897,341.668415 153.225897,341.668415 L153.225897,343.62575 C150.711601,348.238713 143.837072,360.300128 134.671032,372.477926 C125.791432,375.038331 114.461189,376.921605 102.303456,375.52502 C85.6157483,373.599426 73.1927947,363.939713 66,356.607642 C67.4003671,355.549623 68.8856049,354.449284 70.4769312,353.306623 C102.303456,318.392 81.0857729,331.088226 135.190866,223.170299 C189.295958,115.252372 246.583704,100.440108 246.583704,100.440108 C230.415829,65.1551777 240.239616,43.3176678 252.216999,26.696191 C261.202688,23.786639 273.986342,20.591422 287.958186,20.030672 C314.480291,18.9726531 341.002395,45.4231254 338.880627,78.2217111" id="Fill-15" fill="#F8BD7B"></path>
                <path d="M139.576976,214.997654 C192.352496,114.441849 246.665775,100.376613 246.665775,100.376613 C230.514545,65.07326 240.328219,43.2232899 252.29327,26.5941935 C252.886754,25.7685079 253.480237,24.9629351 254.084319,24.1594795 C266.801823,7.22233882 307.073917,-17.1248009 353.704764,17.8080517 C400.335611,52.7409044 370.661436,110.962326 370.661436,110.962326 C401.395403,125.782324 427.890202,161.773748 428.949994,212.58517 C430.009786,263.396592 414.112906,302.56373 391.857275,342.789439 C380.199563,402.069431 368.541852,401.01086 353.704764,403.128003 C338.867676,405.245145 317.671837,399.952289 314.492461,392.54229 C311.313085,385.132291 322.970797,379.839434 326.150173,359.72658 C329.329549,339.613725 312.372877,327.969441 312.372877,327.969441 C304.954333,347.023724 268.921406,370.312292 260.443071,391.483718 C251.964735,412.655144 242.426607,411.596573 220.170976,410.538002 C197.915344,409.47943 184.138049,394.659432 203.214304,378.780863 C222.29056,362.902293 223.350352,336.438011 223.350352,336.438011 C201.09472,350.199438 154.463874,341.730868 154.463874,341.730868 C154.463874,341.730868 154.104604,342.429525 153.404082,343.688166 C150.892375,348.304595 144.024923,360.372308 134.86832,372.556464 C124.027708,387.016547 109.973807,401.635417 96.1753152,404.186574 C67.560932,409.47943 50.6042605,389.366576 47.4248846,385.132291 C44.437331,381.152063 44.2561066,373.424492 66.2690456,356.677894 C67.6669112,355.619323 69.15062,354.518409 70.7403079,353.375152 C96.7772771,324.767263 87.2773019,328.107055 112.666738,270.953732" id="Stroke-17" stroke="#3A3A3A" stroke-width="3" stroke-linecap="round" stroke-linejoin="round"></path>
                <path d="M226,274 C226,274 215.42,284.517241 218.594,299.241379 C221.768,313.965517 223.884,335 223.884,335" id="Stroke-19" stroke="#3A3A3A" stroke-width="3" stroke-linecap="round" stroke-linejoin="round"></path>
                <path d="M338,267 C338,267 335.916667,298.578947 313,327" id="Stroke-21" stroke="#3A3A3A" stroke-width="3" stroke-linecap="round" stroke-linejoin="round"></path>
                <path d="M282.105925,59.7075392 C282.105925,59.7075392 305.509875,42.6701276 321.467113,62.9020538 C337.424352,83.13398 326.786193,118.273641 301.254611,121.468156 C275.723029,124.662671 257.638159,112.94945 247,100.171392" id="Stroke-23" stroke="#3A3A3A" stroke-width="3" stroke-linecap="round" stroke-linejoin="round"></path>
                <path d="M80.6753247,209.083036 C80.6753247,209.083036 76.4545455,201.776159 89.1168831,199.68848 C101.779221,197.600801 106,200.732319 106,202.819999 C106,204.907678 103.88961,213.258395 97.5584416,215.346074 C91.2272727,217.433753 84.8961039,214.302234 80.6753247,209.083036" id="Fill-25" fill="#3A3A3A"></path>
                <path d="M45.6415965,174.592679 C43.0162647,177.86639 37.4677374,177.791594 33.2476389,174.426826 C29.0275404,171.060974 27.7338986,165.679947 30.3581433,162.407321 C32.9834751,159.13361 38.5320024,159.208406 42.7521009,162.573174 C46.9732865,165.939026 48.2658412,171.318969 45.6415965,174.592679" id="Fill-33" fill="#FFFFFF"></path>
                <path d="M139.410045,166.637929 C137.81052,162.538246 141.032465,157.36189 146.605307,155.077293 C152.177108,152.791629 157.990347,154.262052 159.589872,158.361735 C161.189397,162.461417 157.968492,167.637774 152.395651,169.923438 C146.82385,172.208034 141.00957,170.737612 139.410045,166.637929" id="Fill-35" fill="#FFFFFF"></path>
                <path d="M26.3089796,113.039766 C23.7031709,112.695212 21.3612147,114.630823 21.2356209,117.251325 C21,122.166743 20.7649077,130.379126 21.4688666,135.302973 C22.5242772,142.678734 23.5796878,146.893455 25.690509,145.839775 C27.8013302,144.786095 33.0783833,135.302973 37.3000257,133.195613 C41.5216681,131.088253 49.964953,124.766172 48.9095424,122.658812 C48.0409395,120.924454 35.0097847,114.189331 26.3089796,113.039766" id="Fill-37" fill="#FFFFFF"></path>
                <path d="M31.9292123,230.16175 C24.3699948,232.3717 16.9305852,230.061364 15.3128259,225.001469 C13.6950666,219.941574 18.5115702,214.0482 26.0707877,211.83825 C33.6300052,209.6283 41.0694148,211.938636 42.6871741,216.998531 C44.3049334,222.058426 39.4884298,227.9518 31.9292123,230.16175 Z" id="Oval-Copy-2" fill-opacity="0.9" fill="#FCD9D7" opacity="0.8" filter="url(#filter-1)" transform="translate(29.000000, 221.000000) rotate(35.000000) translate(-29.000000, -221.000000) "></path>
                <path d="M85,228.5 C92.3333333,226.5 98.8333333,226.5 104.5,228.5" id="Path-7" stroke="#3A3A3A" stroke-width="3" stroke-linecap="round" stroke-linejoin="round"></path>
                <g id="Group" transform="translate(33.000000, 180.000000)">
                    <path d="M3.81400888,16.0097545 C10.7520759,16.9958915 14.5944754,17.4849578 15.3410991,17.4849578 C15.8531244,17.4849578 16.5359051,17.8946451 16.9966372,18.4843549 C17.3633722,18.953754 17.5956087,19.5590613 17.4612919,20.2276295 C17.3983236,20.5410575 17.2213262,20.7409924 16.9913699,20.8751396 C16.5512138,21.131909 15.9577394,21.1919099 15.4417544,21.2574339 C14.6943922,21.35234 14.1505333,21.5219444 13.8884563,21.7990368 C13.580826,21.9768234 13.4307562,22.001974 13.2510459,21.9997075 C12.6017759,21.9915191 11.6881368,21.8250453 10.674958,21.6442394 C10.0412246,21.5311471 9.37012744,21.4114896 8.69904687,21.3160514 C6.92835723,21.0642316 4.82220884,21.3069195 3.15802571,21.5034957 C2.35422832,21.5984416 1.65926583,21.68231 1.17036771,21.68231 C0.481661252,21.0468686 0.514453348,20.8682963 0.601580698,20.7187742 C1.25697167,20.3291986 1.4585907,20.2002129 1.5921486,20.0644428 C1.87551839,19.0012995 1.56947118,18.4947986 1.14150865,17.885529 C1.0443424,17.747198 0.942149209,17.6017769 0.839987383,17.4492223 C1.68430727,16.687107 2.56891797,16.352039 3.81400888,16.0097545 Z" id="Path-8-Copy" stroke="#DAEFF3" fill="#DAEFF3"></path>
                    <path d="M5.95713811,5.73473748 C2.53200327,6.5111708 0.215125325,10.9412946 3.80388332,15.4970321 C7.39264131,20.0527696 11.6991509,20.0527696 14.5701573,18.7511303 C17.4411637,17.449491 18.1589153,10.9412946 14.5701573,8.33801604 C10.9813993,5.73473748 8.82814451,5.08391784 5.95713811,5.73473748 Z" id="Path-4" stroke="#3A3A3A" fill="#3A3A3A" stroke-linecap="round" stroke-linejoin="round"></path>
                    <ellipse id="Oval-Copy-3" stroke="#FFFFFF" fill="#FFFFFF" cx="11.5" cy="14.5" rx="3" ry="2.5"></ellipse>
                    <circle id="Oval-Copy-5" stroke="#FFFFFF" fill="#FFFFFF" cx="5.5" cy="10" r="2"></circle>
                    <g id="Group-2" transform="translate(98.000000, 0.000000)">
                        <path d="M3.60508478,9.51080589 C10.1556053,10.4965587 13.7835583,10.9849578 14.4888158,10.9849578 C14.9654326,10.9849578 15.5954396,11.3950794 16.0221676,11.9733945 C16.3718862,12.4473443 16.5908529,13.0588451 16.4629561,13.7329053 C16.4036854,14.045282 16.2399302,14.2473892 16.022597,14.3816304 C15.6120234,14.6352314 15.0576707,14.6932447 14.5767386,14.7579098 C13.8545167,14.8550184 13.3359259,15.0266423 13.0865253,15.3089246 C12.8125602,15.4758843 12.6777362,15.5018775 12.5155978,15.4997123 C11.9046689,15.4915542 11.045074,15.3252832 10.0917784,15.1451567 C9.49264067,15.0319489 8.85817525,14.9121803 8.22372939,14.8166446 C6.54679336,14.5641294 4.55210414,14.8067758 2.97592283,15.0039089 C2.21947291,15.0985181 1.56545945,15.18231 1.10534728,15.18231 C0.482244753,14.5463955 0.513368825,14.3622555 0.598198862,14.2081125 C1.86760466,12.550303 1.52823006,12.0294818 1.10832472,11.3965181 C1.01654849,11.258175 0.920023304,11.1127392 0.82352862,10.9601711 C1.61317171,10.1823505 2.44140758,9.85037349 3.60508478,9.51080589 Z" id="Path-8" stroke="#DAEFF3" fill="#DAEFF3"></path>
                        <path d="M7.69332891,0.201203556 C4.49653638,0.866717831 2.33411697,4.66396681 5.68362443,8.56888465 C9.03313189,12.4738025 13.0525408,12.4738025 15.7321468,11.3581117 C18.4117528,10.2424209 19.0816543,4.66396681 15.7321468,2.43258518 C12.3826394,0.201203556 10.3729349,-0.356641851 7.69332891,0.201203556 Z" id="Path-4-Copy" stroke="#3A3A3A" fill="#3A3A3A" stroke-linecap="round" stroke-linejoin="round" transform="translate(11.000000, 6.000000) scale(-1, 1) translate(-11.000000, -6.000000) "></path>
                        <ellipse id="Oval-Copy-6" stroke="#FFFFFF" fill="#FFFFFF" cx="13.5" cy="4" rx="2" ry="1.5"></ellipse>
                        <ellipse id="Oval-Copy-4" stroke="#FFFFFF" fill="#FFFFFF" cx="9.5" cy="8" rx="3" ry="2.5"></ellipse>
                    </g>
                </g>
            </g>
        </g>
    </g>
</svg>